<svg xmlns="http://www.w3.org/2000/svg" viewBox="0 0 100 100" width="64" height="64" role="img" aria-label="Heart logo">
    <defs>
        <!-- hlavní přechod – kontrastnější -->
        <linearGradient id="heartGradient" x1="0" y1="0" x2="0" y2="1">
            <stop offset="0%" stop-color="#e8b5e6"/>
            <stop offset="50%" stop-color="#d497d5"/>
            <stop offset="100%" stop-color="#814b80"/>
        </linearGradient>

        <!-- jemný asymetrický lesk -->
        <radialGradient id="shine" cx="65%" cy="25%" r="40%">
            <stop offset="0%" stop-color="white" stop-opacity="0.35"/>
            <stop offset="80%" stop-color="white" stop-opacity="0"/>
        </radialGradient>
    </defs>

    <!-- základní srdce -->
    <path
            d="M50 85C50 85 12 57 12 33.5C12 20 22 12 33 12C40 12 46 16 50 22C54 16 60 12 67 12C78 12 88 20 88 33.5C88 57 50 85 50 85Z"
            fill="url(#heartGradient)"
    />

    <!-- lesk -->
    <path
            d="M50 85C50 85 12 57 12 33.5C12 20 22 12 33 12C40 12 46 16 50 22C54 16 60 12 67 12C78 12 88 20 88 33.5C88 57 50 85 50 85Z"
            fill="url(#shine)"
    />
</svg>
